<?xml version="1.0" encoding="utf-8"?>
<!-- Generator: Adobe Illustrator 24.2.1, SVG Export Plug-In . SVG Version: 6.00 Build 0)  -->
<svg version="1.1" xmlns="http://www.w3.org/2000/svg" xmlns:xlink="http://www.w3.org/1999/xlink" x="0px" y="0px"
	 viewBox="0 0 253.1 31.5" style="enable-background:new 0 0 253.1 31.5;" xml:space="preserve">
<style type="text/css">
	.st0{fill:#5195A5;}
	.st1{fill:#7470BA;}
	.st2{fill:#6F77B8;}
	.st3{fill:#48A1A0;}
	.st4{fill:#6385B0;}
	.st5{fill:#5B8CAB;}
	.st6{fill:#687DB3;}
	.st7{fill:#35B795;}
	.st8{fill:#40AB9B;}
	.st9{fill:#8260C2;}
	.st10{opacity:0.49;fill:#8262C2;}
	.st11{opacity:0.49;fill:#7570BB;}
	.st12{opacity:0.49;fill:#6581B1;}
</style>
<g id="img">
</g>
<g id="traço">
	<g>
		<path class="st0" d="M156.6,8.6c0,1.7-0.1,3.4-0.1,5.1h-0.1l0.1,0l-0.4,0.9l-9.8-4.8l0-0.1l-0.2,0c0-1.7,0-3.5,0-5.4
			c0-0.7,0-1.5,0-2.2c-2,0-4.2,0-6.4-0.1l-0.2,11.8c5.5,2.5,11.4,5.3,16.8,8l0,0.1l0.3,0c0.1,1.3,0.2,2.8,0.2,4.3
			c0.1,1.2,0.1,2.3,0.2,3.4l6.1-0.2c0-9.3,0.2-18.8,0.4-27.2c-2.1-0.2-4.3-0.3-6.7-0.3C156.7,4.1,156.6,6.4,156.6,8.6z"/>
		<path class="st1" d="M50.6,2c-3.6-0.1-7.4,0-11.1,0c-2.1,0-4.3,0-6.4,0c-0.6,0-1.2,0-1.9,0c0,1.7,0,3.4,0.1,5.1
			c0.1,3.8,0.1,7.7,0.1,11.6c2,0,4.2,0,6.3,0c2.1,0,4.3,0,6.3,0c0-1.5-0.1-3.3-0.1-5c0-0.4,0-0.8,0-1.2h-4.3c0,0,0,0,0,0l-1,0
			c0-0.5,0-1.9,0-2.9l0-1h0.1l0-0.2c2,0,4,0,6,0c2,0,4.1,0,6,0c0-1.2,0-2.3-0.1-3.4C50.7,3.9,50.7,2.9,50.6,2z"/>
		<path class="st2" d="M67.4,22.9c-1.6,0-3.4,0-5,0l0-0.6l-0.1,0L62.1,1.8c-1.9-0.1-3.9-0.1-5.8-0.1l-1,0c0.1,9.9,0.1,19.7,0,27.8
			l15,0.1v-6.6l-0.7,0C69,22.9,68.2,22.9,67.4,22.9z"/>
		<path class="st3" d="M177,2.3c0.9,2.9,2,5.9,3.1,8.8c1,2.7,2,5.5,2.9,8l-0.6,0.2l0,0.1l-10.9,0.2c-1,2.2-2,4.6-2.9,7
			c-0.4,0.9-0.8,1.9-1.1,2.8c1.4,0,2.7,0,3.9,0c1.2,0,2.4,0,3.6,0c0.1-0.4,0.3-0.9,0.4-1.4c0.3-0.9,0.6-1.9,0.7-2.5l0.1,0v-0.1h8.1
			v0l0,0c0.2,0.7,0.5,1.4,0.7,2.1c0.2,0.7,0.5,1.3,0.7,2c1.9,0,3.7-0.1,5.5-0.1c0.5,0,0.9,0,1.4,0c-3.9-10.4-6.8-19-9.2-27H177z"/>
		<path class="st4" d="M106.8,29.2c-1.3-1-2.4-2.2-3.3-3.6c-1.8-2.7-2.9-5.8-3-9c-0.2-3.2,0.8-6.5,2.3-9.2c1.4-2.5,3.4-4.6,5.8-6.1
			c-4,0-7.9,1.5-10.9,4.2c-1.6,1.4-2.8,3.2-3.6,5.2c-0.8,2-1,4.2-0.9,6.3c0.3,4.2,2.3,8.5,5.8,10.9c1.7,1.2,3.8,1.9,5.9,2.3
			c1.4,0.3,2.8,0.4,4.2,0.4c-0.1,0-0.1,0-0.2-0.1C108.1,30.1,107.4,29.7,106.8,29.2z"/>
		<path class="st5" d="M120.2,8.1c-1.3-2-3.1-3.6-5.2-4.6c-1.4,0.5-2.7,1.1-3.9,2c-0.7,0.5-1.3,1-1.9,1.5c-0.3,0.3-0.6,0.6-0.9,0.9
			c0,0.1-0.1,0.1-0.2,0.2c1.6,0.5,3.3,1.1,4.6,2.3c0.7,0.7,1.4,1.5,1.9,2.5c0.4,0.9,0.6,2,0.7,3c0,1-0.1,2.1-0.5,3
			c-0.2,0.5-0.5,0.9-0.8,1.3c-0.3,0.4-0.7,0.8-1.1,1.1c-0.9,0.6-1.9,1-2.8,1.2c-0.6,0.2-1.1,0.3-1.7,0.4c1,1.4,2.2,2.5,3.6,3.4
			c0.8,0.5,1.7,0.9,2.6,1.2c0.8,0.3,1.6,0.4,2.4,0.4c2-1.4,3.5-3.4,4.5-5.6c1-2.3,1.5-4.8,1.3-7.3C122.5,12.5,121.6,10.1,120.2,8.1z
			"/>
		<path class="st6" d="M89.7,22.8c-1.2,0-2.6,0-3.9,0c-1.5,0-2.9,0-4.2,0v-0.2l-0.1,0l0.3-20.5c-1.3,0-2.6,0-3.9,0
			c-0.8,0-1.7,0-2.5,0c-0.1,0-0.2,0-0.4,0c0,5,0,10,0,14.8c0,4.2,0,8.4,0,12.6c2.3,0,4.7,0,7.1,0c2.6,0,5.2,0,7.7,0
			c0-2.7,0-4.2,0-5.9L89.7,22.8z"/>
		<path class="st7" d="M240,14.1l0.5-0.4c1.8-2.1,3.7-4.2,5.5-6.3c1.7-1.9,3.4-3.9,5.1-5.8c-2.8,0-6.2,0-9.6,0.2l-7.6,8.9
			c0,0,0,0.1,0,0.1l-0.1,0l0,0l-0.1,0l-0.8,0c0-2.9,0-5.9,0-8.9c-2.3,0-4.7,0-7-0.1l-0.1,5.6c-0.2,7.3-0.3,14.3-0.5,21.3
			c2.6-2.3,5.7-4.8,8.4-7c0.8-0.6,1.5-1.2,2.3-1.8l0.1,0.1c2.7,2.8,5.1,6,7.2,9.4l0.4,0c2.5,0,5.5,0.1,8,0c-2-2.9-4.3-5.7-6.6-8.7
			C243.4,18.6,241.7,16.4,240,14.1z"/>
		<path class="st8" d="M217.6,2.6c-1.9-1-3.9-1.5-5.6-1.6c-0.7,0-1.4,0-2.1,0.1c-1.5,0.2-2.6,0.5-3.7,0.8c0.4,0.7,0.8,1.3,1.2,2
			c0.8,1.3,1.6,2.6,2.3,3.9c2.1-0.5,4.7,0.2,6.1,2.1c1-0.9,2.1-2.1,3.2-3.3c0.7-0.7,1.3-1.4,2-2c-0.9-0.8-2-1.4-3.1-1.9L217.6,2.6z"
			/>
		<path class="st9" d="M21.7,2.2c-0.9,0-1.8,0-2.7,0c-0.4,0-0.7,0-1.1,0c0,1.6,0,3.3,0,5c0,2.2,0,4.6,0,6.8l-0.7,0l0,0
			c0,0,0,0-0.1,0l-0.3,0c0,0,0-0.1,0-0.1c-3.1-1.3-6.4-2.7-9.5-4.4l0-0.1l-0.1,0c0-1.4,0-2.7,0-4c0-1,0-2.1,0-3.2L1,2
			c0,2.8,0.2,5.7,0.3,8.5c0.1,1.2,0.1,2.3,0.2,3.5c3.4,1.7,7,3.6,10.4,5.5c1.9,1,3.8,2.1,5.6,3l0.3,0l0,1.1c0,1.9,0,4.3,0,6.1h7.3
			c0.1-4.3,0.1-8.8,0.1-13.3c0-4.8,0.1-9.7,0.1-14.2C24.2,2.2,23,2.2,21.7,2.2z"/>
		<path class="st8" d="M210.5,23.9C210.5,23.9,210.5,23.9,210.5,23.9c-2.6,0-5.2-1.7-6.5-4.1c-1.2-2.2-1.3-4.5-0.5-6.5
			c-0.6-1-1.3-2.1-2-3c-0.8-1.2-1.6-2.4-2.4-3.7c-1.7,2.5-2.7,5.3-3,8.6c-0.2,1.8-0.1,3.5,0.3,5.1c1.1,5,5.8,9.2,11.1,10
			c5.3,0.8,10.2-0.8,13.2-4.4c-1.4-1.5-2.8-3.1-4-4.6C215.2,22.9,212.9,23.9,210.5,23.9z"/>
		<path class="st1" d="M39.3,23c-1.6,0-3.2,0-4.8,0c-1,0-1.9,0-2.8,0l0,0.9c0,1.8,0,3.7,0,5.5c1.9,0,4.1,0.1,6.7,0.1
			c3.4,0,8.2,0,12.1-0.1c0-2.4,0-4.6,0-6.5c-0.9,0-1.8,0-2.6,0C45.2,23,42.2,23,39.3,23z"/>
		<path class="st9" d="M26.3,1.2c-1.4,0-3,0-4.6,0c-1.6,0-3.2,0-4.6,0l0,0.1l-0.2,0c0,1.9,0,4,0,5.9c0,1.8,0,3.7,0,5.5
			c-2.9-1.2-5.8-2.5-8.6-3.9c0-1.2,0-2.3,0-3.5c0-1.3,0-2.7,0-4l-0.1,0l0-0.1L0,0.9l0,1l0,0c0,2.9,0.2,5.8,0.3,8.6
			c0.1,1.3,0.1,2.7,0.2,4l0,0c0,0,0,0,0,0c0,0,0,0,0,0l0,0c3.5,1.7,7.3,3.8,10.9,5.8c1.8,1,3.6,2,5.4,2.9l0,0.4c0,2.3-0.1,5.2,0,7.2
			l1,0c0,0,0,0,0,0H26v-0.3l0,0c0.1-4.5,0.1-9.2,0.1-14c0-4.9,0.1-9.8,0.1-14.4l0,0L26.3,1.2z M25.2,16.4c0,4.5-0.1,9-0.1,13.3h-7.3
			c0-1.8,0-4.2,0-6.1l0-1.1l-0.3,0c-1.8-1-3.7-2-5.6-3C8.5,17.6,4.9,15.6,1.5,14c0-1.2-0.1-2.3-0.2-3.5C1.2,7.7,1.1,4.8,1,2l6.3,0.2
			c0,1.1,0,2.1,0,3.2c0,1.3,0,2.7,0,4l0.1,0l0,0.1c3.1,1.6,6.4,3,9.5,4.4c0,0,0,0.1,0,0.1l0.3,0c0,0,0,0,0.1,0l0,0l0.7,0
			c0.1-2.2,0-4.5,0-6.8c0-1.7,0-3.3,0-5c0.4,0,0.7,0,1.1,0c0.9,0,1.8,0,2.7,0c1.2,0,2.5,0,3.6,0C25.3,6.8,25.2,11.6,25.2,16.4z"/>
		<path class="st1" d="M51.6,2C51.7,2,51.7,2,51.6,2l0.1-1c-4-0.1-8.2-0.1-12.2,0c-3,0-6.1,0-9.1,0l0,0.3l-0.1,0
			c0,1.9,0,3.9,0.1,5.8c0.1,4.1,0.1,8.4,0.1,12.5l0.2,0l0,0c2.2,0,4.6,0,7.1,0c1.4,0,2.8,0,4.2,0c1,0,2,0,2.9,0l0-0.1l0.2,0
			c-0.1-1.5-0.1-3.9-0.1-6c0-0.8,0-1.5,0-2.2l-0.1,0v-0.1h-5.1c0-0.6,0-1.3,0-1.8l0-0.2c1.7,0,3.4,0,5.1,0c1.1,0,2.2,0,3.4,0
			c0.9,0,1.8,0,2.7,0l0,0l1,0c0-1.5-0.1-3-0.1-4.4C51.7,3.9,51.7,2.9,51.6,2z M44.8,8.4c-2,0-4.1,0-6,0l0,0.2h-0.1l0,1
			c0,1,0,2.4,0,2.9l1,0c0,0,0,0,0,0h4.3c0,0.4,0,0.8,0,1.2c0,1.7,0,3.6,0.1,5c-2,0-4.1,0-6.3,0c-2.1,0-4.3,0-6.3,0
			c0-3.9,0-7.8-0.1-11.6c0-1.7,0-3.4-0.1-5.1c0.6,0,1.2,0,1.9,0c2.1,0,4.3,0,6.4,0c3.7,0,7.5-0.1,11.1,0c0,1,0,2,0.1,3
			c0,1.1,0.1,2.3,0.1,3.4C48.9,8.4,46.8,8.4,44.8,8.4z"/>
		<path class="st1" d="M51.3,22h-0.5c-0.9,0-1.9,0-2.8,0c-2.8,0-5.8,0-8.7,0c-2.9,0-5.9,0-8.7,0l0,1c0,0,0,0,0,0l0,0.9
			c0,2.1,0,4.4,0,6.5l0.2,0l0,0c2,0.1,4.6,0.1,7.5,0.1c0.5,0,1.1,0,1.6,0c3.5,0,7.9,0,11.5-0.1l0-0.2h0.1c0-3.1,0-5.9,0-8.1L51.3,22
			L51.3,22z M50.5,29.5c-3.9,0.1-8.7,0.1-12.1,0.1c-2.6,0-4.8,0-6.7-0.1c0-1.8,0-3.7,0-5.5l0-0.9c0.9,0,1.9,0,2.8,0
			c1.6,0,3.2,0,4.8,0c2.9,0,5.9,0,8.7,0c0.8,0,1.7,0,2.6,0C50.5,24.9,50.5,27.1,50.5,29.5z"/>
		<path class="st2" d="M71.1,21.9l-1.5,0c-1.8,0-4.2,0-6.3,0l-0.2-21l-0.1,0l0-0.1c-2.1-0.1-4.5-0.1-6.7-0.1l-1.9,0l0,0.6l0,0
			c0.1,10.4,0.1,20.8,0,29.2l0.7,0l0,0l16.2,0.1l0-0.1h0.1V22L71.1,21.9L71.1,21.9z M70.3,29.5l-15-0.1c0-8.1,0-17.9,0-27.8l1,0
			c1.9,0,4,0,5.8,0.1l0.2,20.6l0.1,0l0,0.6c1.6,0,3.4,0,5,0c0.8,0,1.6,0,2.3,0l0.7,0V29.5z"/>
		<path class="st6" d="M90.7,22l-0.1,0l0-0.1c-1.5,0-3.1,0-4.8,0c-1.1,0-2.3,0-3.4,0l0.3-20.4l-0.2,0l0-0.3c-1.5,0-3.1,0-4.7,0
			c-1.3,0-2.5,0-3.8,0l0,0.5l-0.1,0C73.9,6.8,73.9,12,74,17c0,4.5,0,9,0,13.4l0.2,0l0,0.2c2.5,0,5.3,0,8,0c2.9,0,5.9,0,8.6,0l0-0.1
			l0,0c0-3.3,0-4.9,0-6.8L90.7,22z M89.7,29.7c-2.4,0-5.1,0-7.7,0c-2.4,0-4.8,0-7.1,0c0-4.2,0-8.4,0-12.6c0-4.8,0-9.8,0-14.8
			c0.1,0,0.2,0,0.4,0c0.8,0,1.6,0,2.5,0c1.3,0,2.6,0,3.9,0l-0.3,20.5l0.1,0v0.2c1.3,0,2.8,0,4.2,0c1.3,0,2.7,0,3.9,0l0,0.9
			C89.7,25.4,89.7,27,89.7,29.7z"/>
		<path class="st4" d="M111.3,30.4c0-0.1-0.1-0.1-0.1-0.1l-0.1,0l-0.3,0c-0.2,0-0.4-0.1-0.6-0.1c-0.4-0.1-0.7-0.2-1.1-0.3
			c-0.7-0.3-1.4-0.7-2-1.1c-1.2-0.9-2.3-2.1-3.1-3.4c-1.7-2.6-2.8-5.6-2.9-8.7c-0.2-3.1,0.7-6.2,2.2-8.9c1.5-2.7,3.7-5.1,6.4-6.5
			l-0.3-0.5c0,0-0.1,0-0.1,0.1l0-0.1C105,0.3,100.5,2,97.2,4.9c-1.6,1.5-3,3.3-3.8,5.4c-0.8,2.1-1.1,4.3-0.9,6.5
			c0.2,2.2,0.7,4.4,1.8,6.4c0.5,1,1.2,1.9,1.9,2.8c0.8,0.8,1.5,1.6,2.5,2.2c1.8,1.3,4,2,6.1,2.4c2.2,0.4,4.4,0.5,6.6,0.3l0-0.3
			L111.3,30.4z M104.9,30.1c-2.1-0.4-4.2-1.1-5.9-2.3c-3.6-2.4-5.5-6.7-5.8-10.9c-0.1-2.1,0.2-4.3,0.9-6.3c0.8-2,2-3.8,3.6-5.2
			c2.9-2.7,6.9-4.2,10.9-4.2c-2.4,1.5-4.4,3.7-5.8,6.1c-1.6,2.8-2.5,6-2.3,9.2c0.2,3.2,1.3,6.4,3,9c0.9,1.3,2,2.6,3.3,3.6
			c0.7,0.5,1.4,0.9,2.1,1.2c0.1,0,0.1,0,0.2,0.1C107.7,30.4,106.3,30.3,104.9,30.1z"/>
		<path class="st5" d="M120.8,7.6c-1.5-2.2-3.5-4-5.8-5.3l0,0.1l0,0c-1.6,0.6-3.1,1.4-4.5,2.3c-0.7,0.5-1.3,1-1.9,1.6
			c-0.3,0.3-0.6,0.6-0.9,0.9l-0.4,0.5L107,7.9c-0.1,0.1-0.1,0.2-0.3,0.2l0.4,0.3l-0.1,0.3c1.9,0.4,3.7,1,5.1,2.2
			c0.7,0.6,1.3,1.4,1.7,2.2c0.4,0.8,0.6,1.7,0.6,2.7c0,0.9-0.1,1.9-0.5,2.7c-0.2,0.4-0.4,0.8-0.7,1.1c-0.3,0.4-0.6,0.7-1,0.9
			c-1.5,1-3.5,1.3-5.4,1.6l0.1,0.6l-0.1,0c0,0,0.1,0.1,0.1,0.1l0,0.2c0,0,0.1,0,0.1,0c1.2,1.5,2.5,2.9,4.3,3.8c1.8,1,3.7,1.8,5.8,2
			l0-0.2l0.1,0.1c2.1-1.6,3.8-3.8,4.8-6.2c1-2.4,1.5-5.1,1.3-7.7C123.2,12.3,122.3,9.8,120.8,7.6z M121.4,22.3
			c-1,2.2-2.5,4.2-4.5,5.6c-0.8-0.1-1.6-0.2-2.4-0.4c-0.9-0.3-1.8-0.7-2.6-1.2c-1.4-0.8-2.6-2-3.6-3.4c0.6-0.1,1.1-0.3,1.7-0.4
			c1-0.3,2-0.6,2.8-1.2c0.4-0.3,0.8-0.7,1.1-1.1c0.3-0.4,0.6-0.9,0.8-1.3c0.4-1,0.6-2,0.5-3c0-1-0.2-2-0.7-3c-0.5-1-1.1-1.7-1.9-2.5
			c-1.3-1.2-2.9-1.9-4.6-2.3c0.1-0.1,0.1-0.1,0.2-0.2c0.3-0.3,0.6-0.6,0.9-0.9c0.6-0.6,1.2-1.1,1.9-1.5c1.2-0.9,2.5-1.5,3.9-2
			c2.1,1.1,3.9,2.7,5.2,4.6c1.4,2.1,2.3,4.5,2.5,7C122.9,17.5,122.4,20.1,121.4,22.3z"/>
		<path class="st0" d="M163.9,1.2c-2.4-0.2-5-0.3-7.8-0.4l0,0.1l-0.5,0c0.1,2.6,0,5.2,0,7.7c0,1.5-0.1,3.1-0.1,4.7L147,9.1
			c0-1.5,0-3.1,0-4.8c0-0.9,0-1.9,0-2.9h-0.3V1.1c-2.3,0-5,0-7.6-0.1l0,0.1l-0.5,0l-0.2,13.3l0.4,0l-0.1,0.2
			c5.5,2.4,11.4,5.3,16.8,8c0.1,1.1,0.1,2.4,0.2,3.6c0.1,1.5,0.2,3,0.2,4.3l0.5,0l0,0.1l7.4-0.3l0-0.4h0.1c0-9.8,0.2-19.8,0.4-28.7
			l-0.5,0L163.9,1.2z M163,29.4l-6.1,0.2c-0.1-1-0.1-2.2-0.2-3.4c-0.1-1.5-0.1-3-0.2-4.3l-0.3,0l0-0.1c-5.3-2.7-11.3-5.5-16.8-8
			L139.6,2c2.2,0.1,4.4,0.1,6.4,0.1c0,0.8,0,1.5,0,2.2c0,1.9,0,3.7,0,5.4l0.2,0l0,0.1l9.8,4.8l0.4-0.9l-0.1,0h0.1
			c0-1.7,0-3.4,0.1-5.1c0-2.2,0.1-4.5,0-6.8c2.4,0.1,4.6,0.2,6.7,0.3C163.2,10.6,163,20.1,163,29.4z"/>
		<path class="st3" d="M184.3,1.9V1.3h-8v0.1l-0.6,0.2c1,3.2,2.3,6.6,3.5,9.8c0.9,2.3,1.7,4.7,2.5,7l-10.7,0.2l0,0.2l-0.2-0.1
			c-1,2.3-2.1,4.9-3.1,7.5c-0.5,1.2-1,2.3-1.4,3.5l0.3,0.1l0,0.6c1.8,0,3.3,0,4.8,0c1.5,0,2.9,0,4.3,0v-0.1l0,0
			c0.1-0.5,0.3-1.3,0.6-2c0.2-0.7,0.4-1.3,0.6-1.9h6.7c0.2,0.5,0.3,1,0.5,1.4c0.3,0.8,0.6,1.7,0.9,2.5l0.1,0v0.2
			c2.2,0,4.3-0.1,6.1-0.1c0.8,0,1.6-0.1,2.4-0.1l0-0.2l0.3-0.1C189.8,19.1,186.8,10.1,184.3,1.9z M191.2,29.4
			c-1.7,0.1-3.5,0.1-5.5,0.1c-0.2-0.6-0.4-1.3-0.7-2c-0.3-0.7-0.5-1.4-0.7-2.1l0,0v0h-8.1v0.1l-0.1,0c-0.1,0.5-0.4,1.5-0.7,2.5
			c-0.2,0.5-0.3,1-0.4,1.4c-1.2,0-2.4,0-3.6,0c-1.2,0-2.5,0-3.9,0c0.4-0.9,0.8-1.8,1.1-2.8c1-2.4,2-4.8,2.9-7l10.9-0.2l0-0.1
			l0.6-0.2c-0.9-2.6-1.9-5.4-2.9-8c-1.1-2.9-2.2-5.9-3.1-8.8h6.4c2.4,8,5.3,16.6,9.2,27C192.2,29.4,191.7,29.4,191.2,29.4z"/>
		<path class="st8" d="M216.9,19.9l-0.3,0.2l-0.2-0.1c-1.3,1.8-3.5,3-6,3c0,0,0,0,0,0c-2.2,0-4.5-1.4-5.6-3.6
			c-1.2-2.2-1.2-4.4-0.1-6.3l-0.4-0.3l0.1,0c-0.7-1.1-1.3-2.1-2-3.1c-1-1.4-2-2.9-2.9-4.6l-0.8,0.4l0,0c-2,2.8-3.1,5.9-3.5,9.5
			c-0.2,1.9-0.1,3.7,0.3,5.5c1.2,5.3,6.2,9.9,11.9,10.7c0.9,0.1,1.9,0.2,2.8,0.2c4.7,0,8.9-1.9,11.6-5.3l-0.1-0.1l0.3-0.3
			C220.2,23.9,218.4,21.7,216.9,19.9z M207.6,30.3c-5.3-0.8-10-5-11.1-10c-0.4-1.6-0.5-3.3-0.3-5.1c0.3-3.2,1.3-6,3-8.6
			c0.8,1.3,1.6,2.5,2.4,3.7c0.6,1,1.3,2,2,3c-0.9,2-0.7,4.3,0.5,6.5c1.3,2.4,3.9,4.1,6.5,4.1c0,0,0,0,0,0c2.5,0,4.7-1,6.2-2.7
			c1.2,1.5,2.6,3.1,4,4.6C217.7,29.4,212.8,31.1,207.6,30.3z"/>
		<path class="st8" d="M221.7,4C221.7,4,221.7,4,221.7,4L221.7,4C221.6,4,221.6,4,221.7,4c-1.1-1-2.2-1.5-3.5-2.2L218,1.7
			c-2-1-4.2-1.6-6-1.7c-0.8,0-1.5,0.1-2.2,0.1c-1.8,0.2-3.2,0.6-4.5,1.1l0.1,0.2l-0.5,0.3c0.5,0.9,1.1,1.9,1.7,2.8
			c0.9,1.5,1.9,3.1,2.7,4.6l0.5-0.3l0,0c2.1-0.6,4.8,0.3,5.7,2.4l0.6-0.2l0,0c0,0,0,0,0,0l0.3-0.1c0,0,0-0.1-0.1-0.1
			c1-1,2.2-2.3,3.4-3.5c0.9-1,1.9-2,2.7-2.7L221.7,4L221.7,4z M219,6.7c-1.1,1.2-2.2,2.3-3.2,3.3c-1.3-1.8-3.9-2.6-6.1-2.1
			c-0.7-1.3-1.5-2.6-2.3-3.9c-0.4-0.7-0.8-1.4-1.2-2c1.1-0.4,2.3-0.6,3.7-0.8c0.7-0.1,1.4-0.2,2.1-0.1c1.7,0.1,3.8,0.7,5.6,1.6
			l0.2,0.1c1.1,0.6,2.2,1.1,3.1,1.9C220.3,5.3,219.6,6,219,6.7z"/>
		<path class="st7" d="M245.9,20.2c-1.5-1.9-3-3.9-4.5-5.9c1.8-2.1,3.6-4.1,5.4-6.2c1.9-2.2,3.8-4.3,5.6-6.5c0.1,0,0.1,0,0.2,0l0-1
			c-3.2-0.1-7.5-0.1-11.7,0.2l0,0.3l-0.1-0.1L234,9.2c0-2.5,0-5.1,0-7.7h-0.1V1c-3,0-6.1,0-9.1-0.1l0,1c0.1,0,0.1,0,0.2,0l-0.1,5.6
			c-0.2,7.9-0.3,15.3-0.6,22.8l0.8,0l0,0c0,0,0,0,0.1,0l0.1,0c0,0,0-0.1,0-0.1c2.7-2.4,6.1-5.2,9.1-7.6c0.5-0.4,1-0.8,1.5-1.2
			c2.5,2.7,4.8,5.7,6.6,8.9l0.2-0.1l0,0.4l0.9,0c1.9,0,4.2,0.1,6.2,0.1c1.1,0,2.1,0,3,0l0-0.7l0.2-0.1
			C250.9,26.6,248.5,23.5,245.9,20.2z M243.8,29.5l-0.4,0c-2-3.4-4.4-6.5-7.2-9.4L236,20c-0.7,0.6-1.5,1.2-2.3,1.8
			c-2.8,2.2-5.8,4.7-8.4,7c0.2-7,0.4-14,0.5-21.3l0.1-5.6c2.3,0,4.6,0.1,7,0.1c0,3,0,6,0,8.9l0.8,0l0.1,0l0,0l0.1,0c0,0,0-0.1,0-0.1
			l7.6-8.9c3.4-0.2,6.8-0.2,9.6-0.2c-1.7,2-3.4,3.9-5.1,5.8c-1.8,2.1-3.7,4.2-5.5,6.3l-0.5,0.4c1.7,2.2,3.4,4.5,5.1,6.6
			c2.3,3,4.6,5.9,6.6,8.7C249.3,29.6,246.2,29.5,243.8,29.5z"/>
	</g>
	<line class="st10" x1="-505.1" y1="17.4" x2="-518.6" y2="17.4"/>
	<line class="st11" x1="-495.8" y1="3.7" x2="-483.4" y2="3.7"/>
	<line class="st12" x1="-474.2" y1="3.7" x2="-453.3" y2="3.7"/>
</g>
</svg>
